
<svg width="31px" height="36px" viewBox="0 0 31 36" version="1.1" xmlns="http://www.w3.org/2000/svg" xmlns:xlink="http://www.w3.org/1999/xlink">
    <!-- Generator: Sketch 43.1 (39012) - http://www.bohemiancoding.com/sketch -->
    <desc>Created with Sketch.</desc>
    <defs>
        <polygon id="path-1" points="30.658069 35.7160295 0 35.7160295 0 0.488185211 30.658069 0.488185211"></polygon>
    </defs>
    <g id="Page-1" stroke="none" stroke-width="1" fill="none" fill-rule="evenodd">
        <g id="Hansight_ent_logo">
            <g id="Group-23">
                <g id="Page-1">
                    <g id="Group-7" transform="translate(0.000000, 0.173620)">
                        <g id="Fill-5-Clipped">
                            <mask id="mask-2" fill="white">
                                <use xlink:href="#path-1"></use>
                            </mask>
                            <g id="path-1"></g>
                            <path d="M29.8160612,22.4257642 L29.8160612,22.4257642 L29.8160612,22.4257642 C25.3640431,27.9114818 20.3329808,32.0194866 15.3038857,34.7484558 C10.2918407,32.0102269 5.27913989,27.9022221 0.84154879,22.4257642 L0.84154879,5.77944885 L0.842204559,5.77944885 C1.00483535,5.77680321 1.16812192,5.77151195 1.33206425,5.76555928 C5.64768226,5.59954588 10.4748003,4.16296781 15.3038857,1.45516364 C17.6082592,2.75681449 19.9126326,3.76744585 22.1625772,4.48970333 C24.8223777,5.34424241 27.4041415,5.79466123 29.8160612,5.83963697 L29.8160612,22.4257642 Z M22.5599735,3.69865942 C20.1795308,2.93407183 17.7407246,1.86457516 15.3019184,0.488185211 C10.1928195,3.35274306 5.0843764,4.87199713 0.518910276,5.04793165 C0.345787171,5.05454573 0.172008297,5.0604984 0.000196730801,5.06314403 L-0.000459038536,5.06314403 L-0.000459038536,22.6770993 C4.69484941,28.4716943 9.99871181,32.8184674 15.3019184,35.7160957 C20.6234866,32.8283885 25.9470221,28.4822769 30.658069,22.6770993 L30.658069,5.1273006 C28.1064705,5.07901782 25.3738797,4.60214269 22.5599735,3.69865942 L22.5599735,3.69865942 Z" id="Fill-5" fill="#FEFEFE" fill-rule="nonzero" mask="url(#mask-2)"></path>
                        </g>
                        <path d="M21.4870037,20.079816 L21.4791344,20.0877528 C19.7242957,21.9608602 17.8304338,23.4417526 15.9234566,24.5330757 C15.7227912,24.6481607 15.5221258,24.7599386 15.3214604,24.8657639 C15.3188373,24.8670867 15.3162142,24.8684095 15.3135911,24.8697324 C14.7063487,24.5463039 14.0991063,24.1818681 13.4957985,23.7790706 C13.3134947,23.6573716 13.1318465,23.5330269 12.9501984,23.4040523 C11.6524309,22.4813882 10.3795826,21.3735299 9.17099975,20.079816 L9.17099975,20.0679106 L9.17099975,13.1852994 C11.1068308,13.0437581 13.2098831,12.4260031 15.3135911,11.3340186 C16.4644663,11.9444981 17.6153415,12.4107907 18.7386744,12.7368648 C19.1163975,12.8459972 19.4908418,12.9399171 19.8613515,13.0173018 C20.4128535,13.1323868 20.9564863,13.21374 21.4870037,13.2573929 L21.4870037,20.079816 Z M22.7349327,9.79227663 C22.1296576,9.66594771 21.5184806,9.51316248 20.9007459,9.33458233 C19.0652475,8.80148752 17.184501,8.03888415 15.3037546,7.04148095 C11.865556,8.82662102 8.42866886,9.8359296 5.26589335,10.0674223 L5.26523758,10.0674223 L5.26523758,21.3146646 L5.26523758,21.3338454 C7.23910329,23.4483667 9.32051516,25.2593016 11.4425847,26.7673118 C11.7389925,26.9776395 12.036056,27.1800303 12.3331195,27.3791141 C13.3193966,28.0378765 14.3115756,28.633805 15.3037546,29.16227 C15.308345,29.1602858 15.3122796,29.1576401 15.31687,29.1556559 C15.6447546,28.9817056 15.9726393,28.7998184 16.300524,28.6119786 C19.4160841,26.8288227 22.5113154,24.4080696 25.3803062,21.3470736 C25.3842408,21.3424437 25.3888312,21.3384753 25.3927658,21.3338454 L25.3927658,10.185153 C24.5258388,10.1130595 23.6372713,9.9807779 22.7349327,9.79227663 L22.7349327,9.79227663 Z" id="Fill-8" fill="#FEFEFE" fill-rule="nonzero"></path>
                    </g>
                </g>
            </g>
        </g>
    </g>
</svg>